<mxfile host="app.diagrams.net" modified="2023-10-10T01:34:27.257Z" agent="Mozilla/5.0 (Windows NT 10.0; Win64; x64) AppleWebKit/537.36 (KHTML, like Gecko) Chrome/117.0.0.0 Safari/537.36" etag="_CvgV3tzd32vluiYLqz8" version="22.0.4" type="github">
  <diagram id="C5RBs43oDa-KdzZeNtuy" name="Page-1">
    <mxGraphModel dx="1050" dy="534" grid="1" gridSize="10" guides="1" tooltips="1" connect="1" arrows="1" fold="1" page="1" pageScale="1" pageWidth="827" pageHeight="1169" math="0" shadow="1">
      <root>
        <mxCell id="WIyWlLk6GJQsqaUBKTNV-0" />
        <mxCell id="WIyWlLk6GJQsqaUBKTNV-1" parent="WIyWlLk6GJQsqaUBKTNV-0" />
        <mxCell id="WIyWlLk6GJQsqaUBKTNV-2" value="" style="rounded=0;html=1;jettySize=auto;orthogonalLoop=1;fontSize=11;endArrow=block;endFill=0;endSize=8;strokeWidth=1;shadow=0;labelBackgroundColor=none;edgeStyle=orthogonalEdgeStyle;fontColor=default;" parent="WIyWlLk6GJQsqaUBKTNV-1" source="WIyWlLk6GJQsqaUBKTNV-3" target="WIyWlLk6GJQsqaUBKTNV-6" edge="1">
          <mxGeometry relative="1" as="geometry" />
        </mxCell>
        <mxCell id="WIyWlLk6GJQsqaUBKTNV-3" value="Watch today&#39;s menu" style="rounded=0;whiteSpace=wrap;html=1;fontSize=12;glass=0;strokeWidth=1;shadow=0;labelBackgroundColor=none;" parent="WIyWlLk6GJQsqaUBKTNV-1" vertex="1">
          <mxGeometry x="160" y="80" width="120" height="40" as="geometry" />
        </mxCell>
        <mxCell id="WIyWlLk6GJQsqaUBKTNV-4" value="Yes" style="rounded=0;html=1;jettySize=auto;orthogonalLoop=1;fontSize=11;endArrow=block;endFill=0;endSize=8;strokeWidth=1;shadow=0;labelBackgroundColor=none;edgeStyle=orthogonalEdgeStyle;fontColor=default;" parent="WIyWlLk6GJQsqaUBKTNV-1" source="WIyWlLk6GJQsqaUBKTNV-6" target="WIyWlLk6GJQsqaUBKTNV-10" edge="1">
          <mxGeometry y="20" relative="1" as="geometry">
            <mxPoint as="offset" />
          </mxGeometry>
        </mxCell>
        <mxCell id="WIyWlLk6GJQsqaUBKTNV-5" value="No" style="edgeStyle=orthogonalEdgeStyle;rounded=0;html=1;jettySize=auto;orthogonalLoop=1;fontSize=11;endArrow=block;endFill=0;endSize=8;strokeWidth=1;shadow=0;labelBackgroundColor=none;fontColor=default;" parent="WIyWlLk6GJQsqaUBKTNV-1" source="WIyWlLk6GJQsqaUBKTNV-6" target="WIyWlLk6GJQsqaUBKTNV-7" edge="1">
          <mxGeometry y="10" relative="1" as="geometry">
            <mxPoint as="offset" />
          </mxGeometry>
        </mxCell>
        <mxCell id="WIyWlLk6GJQsqaUBKTNV-6" value="Menu has&lt;br&gt;allergy?" style="rhombus;whiteSpace=wrap;html=1;shadow=0;fontFamily=Helvetica;fontSize=12;align=center;strokeWidth=1;spacing=6;spacingTop=-4;rounded=0;labelBackgroundColor=none;" parent="WIyWlLk6GJQsqaUBKTNV-1" vertex="1">
          <mxGeometry x="170" y="171" width="100" height="80" as="geometry" />
        </mxCell>
        <mxCell id="WIyWlLk6GJQsqaUBKTNV-7" value="print(&#39; &#39;)" style="rounded=0;whiteSpace=wrap;html=1;fontSize=12;glass=0;strokeWidth=1;shadow=0;labelBackgroundColor=none;" parent="WIyWlLk6GJQsqaUBKTNV-1" vertex="1">
          <mxGeometry x="320" y="190" width="120" height="40" as="geometry" />
        </mxCell>
        <mxCell id="WIyWlLk6GJQsqaUBKTNV-8" value="Yes" style="rounded=0;html=1;jettySize=auto;orthogonalLoop=1;fontSize=11;endArrow=block;endFill=0;endSize=8;strokeWidth=1;shadow=0;labelBackgroundColor=none;edgeStyle=orthogonalEdgeStyle;fontColor=default;" parent="WIyWlLk6GJQsqaUBKTNV-1" source="WIyWlLk6GJQsqaUBKTNV-10" target="WIyWlLk6GJQsqaUBKTNV-11" edge="1">
          <mxGeometry x="0.3333" y="20" relative="1" as="geometry">
            <mxPoint as="offset" />
          </mxGeometry>
        </mxCell>
        <mxCell id="WIyWlLk6GJQsqaUBKTNV-9" value="No" style="edgeStyle=orthogonalEdgeStyle;rounded=0;html=1;jettySize=auto;orthogonalLoop=1;fontSize=11;endArrow=block;endFill=0;endSize=8;strokeWidth=1;shadow=0;labelBackgroundColor=none;fontColor=default;" parent="WIyWlLk6GJQsqaUBKTNV-1" source="WIyWlLk6GJQsqaUBKTNV-10" target="WIyWlLk6GJQsqaUBKTNV-12" edge="1">
          <mxGeometry y="10" relative="1" as="geometry">
            <mxPoint as="offset" />
          </mxGeometry>
        </mxCell>
        <mxCell id="WIyWlLk6GJQsqaUBKTNV-10" value="Have number?" style="rhombus;whiteSpace=wrap;html=1;shadow=0;fontFamily=Helvetica;fontSize=12;align=center;strokeWidth=1;spacing=6;spacingTop=-4;rounded=0;labelBackgroundColor=none;" parent="WIyWlLk6GJQsqaUBKTNV-1" vertex="1">
          <mxGeometry x="170" y="290" width="100" height="80" as="geometry" />
        </mxCell>
        <mxCell id="WIyWlLk6GJQsqaUBKTNV-11" value="Convert number&amp;nbsp;&lt;br&gt;to Korean" style="rounded=0;whiteSpace=wrap;html=1;fontSize=12;glass=0;strokeWidth=1;shadow=0;labelBackgroundColor=none;" parent="WIyWlLk6GJQsqaUBKTNV-1" vertex="1">
          <mxGeometry x="160" y="430" width="120" height="40" as="geometry" />
        </mxCell>
        <mxCell id="WIyWlLk6GJQsqaUBKTNV-12" value="Error" style="rounded=0;whiteSpace=wrap;html=1;fontSize=12;glass=0;strokeWidth=1;shadow=0;labelBackgroundColor=none;" parent="WIyWlLk6GJQsqaUBKTNV-1" vertex="1">
          <mxGeometry x="320" y="310" width="120" height="40" as="geometry" />
        </mxCell>
        <mxCell id="Ph1BFWZ0GejXgzS7yPT1-2" style="edgeStyle=orthogonalEdgeStyle;rounded=0;orthogonalLoop=1;jettySize=auto;html=1;exitX=1;exitY=0;exitDx=0;exitDy=0;entryX=0.912;entryY=0.577;entryDx=0;entryDy=0;entryPerimeter=0;labelBackgroundColor=none;fontColor=default;" edge="1" parent="WIyWlLk6GJQsqaUBKTNV-1" source="WIyWlLk6GJQsqaUBKTNV-12" target="WIyWlLk6GJQsqaUBKTNV-6">
          <mxGeometry relative="1" as="geometry" />
        </mxCell>
        <mxCell id="Ph1BFWZ0GejXgzS7yPT1-3" value="Go backward" style="text;html=1;align=center;verticalAlign=middle;resizable=0;points=[];autosize=1;strokeColor=none;fillColor=none;rounded=0;labelBackgroundColor=none;" vertex="1" parent="WIyWlLk6GJQsqaUBKTNV-1">
          <mxGeometry x="385" y="258" width="90" height="30" as="geometry" />
        </mxCell>
      </root>
    </mxGraphModel>
  </diagram>
</mxfile>
